<?xml version="1.0" encoding="UTF-8"?><svg id="_이어_2" xmlns="http://www.w3.org/2000/svg" viewBox="0 0 43.19 44"><defs><style>.cls-1{stroke-miterlimit:10;}.cls-1,.cls-2{fill:none;stroke:#1f1f1f;stroke-width:3px;}.cls-2{stroke-linecap:round;stroke-linejoin:round;}</style></defs><g id="_이어_1-2"><g><circle class="cls-1" cx="21.59" cy="22" r="8.5"/><path class="cls-2" d="M5.21,24.03l-3.71,4.17,4.59,7.95,5.55-.98h0c.54,.4,1.1,.78,1.7,1.12s1.2,.65,1.82,.91h0l1.75,5.3h9.18l1.93-5.3h0c1.25-.53,2.44-1.21,3.53-2.04h-.01l5.47,1.14,4.59-7.95c-1.21-1.44-2.42-2.88-3.63-4.32,.17-1.36,.16-2.72,0-4.06h0l3.71-4.17-4.59-7.95-5.55,.98-.04-.03c-.52-.39-1.08-.76-1.66-1.1s-1.2-.64-1.82-.91h0l-1.75-5.3h-9.18l-1.93,5.3h0c-1.24,.52-2.43,1.2-3.52,2.02h0l-5.47-1.13L1.59,15.65l3.62,4.31h0c-.17,1.37-.16,2.73,0,4.07"/></g></g></svg>