<?xml version="1.0" encoding="UTF-8"?><svg id="_이어_2" xmlns="http://www.w3.org/2000/svg" viewBox="0 0 48 38"><defs><style>.cls-1{stroke-linecap:round;}.cls-1,.cls-2{fill:none;stroke:#1f1f1f;stroke-width:3px;}</style></defs><g id="_이어_1-2"><g><path class="cls-1" d="M19.22,11.31c-2.36,1.05-4.29,2.89-5.46,5.18"/><path class="cls-1" d="M33.55,16.03c-1.19-2.08-3.01-3.74-5.21-4.72"/><ellipse class="cls-2" cx="23.78" cy="7.53" rx="5.86" ry="6.03"/><path class="cls-1" d="M30.69,25.57c-3.94,1.75-6.69,5.7-6.69,10.3"/><path class="cls-1" d="M46.5,35.87c0-4.6-2.75-8.55-6.69-10.3"/><path class="cls-2" d="M39.81,25.57c-1.07,1.37-2.72,2.25-4.56,2.25-3.23,0-5.86-2.7-5.86-6.03s2.62-6.03,5.86-6.03,5.86,2.7,5.86,6.03c0,1.43-.49,2.75-1.3,3.78"/><path class="cls-1" d="M8.19,26.2c-3.94,1.75-6.69,5.7-6.69,10.3"/><path class="cls-1" d="M24,36.5c0-4.6-2.75-8.55-6.69-10.3"/><path class="cls-2" d="M13.58,16.45c2.84,.42,5.02,2.93,5.02,5.97,0,3.33-2.62,6.03-5.86,6.03s-5.86-2.7-5.86-6.03,2.62-6.03,5.86-6.03c.28,0,.56,.02,.83,.06"/></g></g></svg>